<svg width="1000" height="1000" viewBox="0 0 1000 1000" fill="none" xmlns="http://www.w3.org/2000/svg">
<rect width="1000" height="1000" fill="white"/>
<circle cx="231.43" cy="393.43" r="103.402" stroke="#0F172A" stroke-width="84.0557"/>
<circle cx="231.43" cy="605.57" r="103.402" stroke="#0F172A" stroke-width="84.0557"/>
<line x1="128.028" y1="385.424" x2="128.028" y2="617.578" stroke="#0F172A" stroke-width="84.0557"/>
<path fill-rule="evenodd" clip-rule="evenodd" d="M380.075 342.729C365.318 299.574 332.305 264.97 290.351 248L794.47 248L740.434 342.729H380.075Z" fill="#0F172A"/>
<path fill-rule="evenodd" clip-rule="evenodd" d="M290.529 751C332.484 733.938 365.323 699.269 379.997 656.271H665.05V751H290.529Z" fill="#0F172A"/>
<path fill-rule="evenodd" clip-rule="evenodd" d="M347.211 499.624C359.867 485.829 370.083 469.77 377.185 452.135H665.05V546.865H377.019C369.936 529.311 359.775 513.344 347.211 499.624Z" fill="#0F172A"/>
<rect x="674.39" y="365.411" width="72.0477" height="385.589" fill="#0F172A"/>
<rect x="842.501" y="365.411" width="72.0477" height="385.589" fill="#0F172A"/>
<path fill-rule="evenodd" clip-rule="evenodd" d="M746.438 366.772C746.438 366.763 746.438 366.754 746.438 366.745C746.438 341.712 767.181 320.048 794.47 320.048C821.758 320.048 842.501 341.712 842.501 366.745L842.501 475.61C884.911 457.286 914.549 415.439 914.549 366.745C914.549 301.164 860.788 248 794.47 248C728.151 248 674.39 301.164 674.39 366.745C674.39 415.439 704.028 457.286 746.438 475.61V366.772Z" fill="#0F172A"/>
</svg>
